{"title":"Limitless 2011 DVDrip English Klam","uid":6517414,"size":1646378360,"categoryP":"video","categoryS":"movies","magnet":"?xt=urn:btih:55980f047baf7ac0ec4a33e3a80e10530664f2a5&amp;dn=Limitless+2011+DVDrip+English+Klam&amp;tr=udp%3A%2F%2Ftracker.openbittorrent.com%3A80&amp;tr=udp%3A%2F%2Fopen.demonii.com%3A1337&amp;tr=udp%3A%2F%2Ftracker.coppersurfer.tk%3A6969&amp;tr=udp%3A%2F%2Fexodus.desync.com%3A6969","seeders":1,"leechers":0,"uploader":"Klambake","files":-1,"time":1309872590,"description":"With: Bradley Cooper, Abbie Cornish and Robert De Niro\n\nAspirant-auteur Eddie Morra (Bradley Cooper) lijdt aan een chronisch gebrek aan inspiratie. Wanneer een oude vriend hem NZT geeft, een revolutionair nieuw farmaceutisch middel, is hij in staat om zijn volledige hersencapaciteit te benutten. Eddie kan zich alles herinneren wat hij ooit heeft gelezen, gezien of gehoord, elke taal in een dag leren en complexe vergelijkingen begrijpen zolang hij het niet-geteste geneesmiddel in blijft nemen. Al snel brengt het middel financieel en sociaal succes en nodigt de magnaat Carl van Loon (Robert de Niro) hem uit om de grootste fusie in de geschiedenis op te zetten. Maar Eddie krijgt ook belangstelling van mensen die tot alles in staat zijn om de NZT in handen te krijgen. Met zijn leven in gevaar en de bijwerkingen van de drugs die zijn tol beginnen te eisen probeert Eddy met zijn slinkende voorraad zo lang mogelijk uit de handen te blijven van mysterieuze stalkers, een wrede gangster en een intensief politie-onderzoek.\n\nA writer discovers a top-secret drug which bestows him with super human abilities. \n\n------------------ Dutch Friends ------------------\nYou can find my Friends at: http://www.Film-Test.nl \n------ They got my dutchs subs ---- and more ------\n\nGeneral:\n\nComplete name                    : Limitless\\Limitless.avi\nFormat                           : AVI\nFormat/Info                      : Audio Video Interleave\nFile size                        : 1.53 GiB\nDuration                         : 1h 44mn\nOverall bit rate                 : 2 096 Kbps\n\nVideo:\n\nFormat                           : MPEG-4 Visual\nFormat profile                   : Simple@L3\nFormat settings, BVOP            : No\nFormat settings, QPel            : No\nFormat settings, GMC             : No warppoints\nFormat settings, Matrix          : Default (H.263)\nCodec ID                         : XVID\nCodec ID/Hint                    : XviD\nDuration                         : 1h 44mn\nBit rate                         : 1 637 Kbps\nWidth                            : 720 pixels\nHeight                           : 304 pixels\nDisplay aspect ratio             : 2.35:1\nFrame rate                       : 23.976 fps\nColor space                      : YUV\nChroma subsampling               : 4:2:0\nBit depth                        : 8 bits\nScan type                        : Progressive\nBits/(Pixel*Frame)               : 0.312\nStream size                      : 1.20 GiB (78%)\nWriting library                  : XviD 1.1.2 (UTC 2006-11-01)\n\nAudio:\n\nFormat                           : AC-3\nFormat/Info                      : Audio Coding 3\nMode extension                   : CM (complete main)\nCodec ID                         : 2000\nDuration                         : 1h 44mn\nBit rate mode                    : Constant\nBit rate                         : 448 Kbps\nChannel(s)                       : 6 channels\nChannel positions                : Front: L C R, Side: L R, LFE\nSampling rate                    : 48.0 KHz\nBit depth                        : 16 bits\nStream size                      : 336 MiB (21%)\nAlignment                        : Aligned on interleaves\nInterleave, duration             : 32 ms (0.77 video frame)\nInterleave, preload duration     : 160 ms\n\n\n","torrent":{"xt":"urn:btih:55980f047baf7ac0ec4a33e3a80e10530664f2a5","amp;dn":"Limitless+2011+DVDrip+English+Klam","amp;tr":["udp%3A%2F%2Ftracker.openbittorrent.com%3A80","udp%3A%2F%2Fopen.demonii.com%3A1337","udp%3A%2F%2Ftracker.coppersurfer.tk%3A6969","udp%3A%2F%2Fexodus.desync.com%3A6969"],"infoHash":"55980f047baf7ac0ec4a33e3a80e10530664f2a5","infoHashBuffer":{"type":"Buffer","data":[85,152,15,4,123,175,122,192,236,74,51,227,168,14,16,83,6,100,242,165]},"announce":[],"urlList":[]}}